<svg id="visual" viewBox="0 0 900 600" width="900" height="600" xmlns="http://www.w3.org/2000/svg" xmlns:xlink="http://www.w3.org/1999/xlink" version="1.1"><rect x="0" y="0" width="900" height="600" fill="#ffffff"></rect><defs><linearGradient id="grad1_0" x1="33.3%" y1="0%" x2="100%" y2="100%"><stop offset="20%" stop-color="#ffffff" stop-opacity="1"></stop><stop offset="80%" stop-color="#ffffff" stop-opacity="1"></stop></linearGradient></defs><defs><linearGradient id="grad2_0" x1="0%" y1="0%" x2="66.7%" y2="100%"><stop offset="20%" stop-color="#ffffff" stop-opacity="1"></stop><stop offset="80%" stop-color="#ffffff" stop-opacity="1"></stop></linearGradient></defs><g transform="translate(900, 0)"><path d="M0 486.7C-70.5 487 -141.1 487.3 -186.3 449.7C-231.5 412.1 -251.4 336.8 -287.1 287.1C-322.8 237.4 -374.3 213.5 -410.2 169.9C-446.1 126.4 -466.4 63.2 -486.7 0L0 0Z" fill="#F7770F"></path></g><g transform="translate(0, 600)"><path d="M0 -486.7C48.5 -437.2 97 -387.7 150.8 -364C204.6 -340.3 263.7 -342.4 318.2 -318.2C372.6 -294 422.4 -243.7 449.7 -186.3C477 -128.9 481.9 -64.4 486.7 0L0 0Z" fill="#F7770F"></path></g></svg>