<svg id="visual" viewBox="0 0 900 600" width="900" height="600" xmlns="http://www.w3.org/2000/svg" xmlns:xlink="http://www.w3.org/1999/xlink" version="1.1"><rect x="0" y="0" width="900" height="600" fill="#ffffff"></rect><defs><linearGradient id="grad1_0" x1="33.3%" y1="0%" x2="100%" y2="100%"><stop offset="20%" stop-color="#ffffff" stop-opacity="1"></stop><stop offset="80%" stop-color="#ffffff" stop-opacity="1"></stop></linearGradient></defs><defs><linearGradient id="grad2_0" x1="0%" y1="0%" x2="66.7%" y2="100%"><stop offset="20%" stop-color="#ffffff" stop-opacity="1"></stop><stop offset="80%" stop-color="#ffffff" stop-opacity="1"></stop></linearGradient></defs><g transform="translate(900, 0)"><path d="M0 486.7C-65.2 481.7 -130.3 476.6 -186.3 449.7C-242.2 422.8 -288.9 374.2 -324.6 324.6C-360.3 274.9 -385 224.2 -410.2 169.9C-435.4 115.6 -461.1 57.8 -486.7 0L0 0Z" fill="#F7770F"></path></g><g transform="translate(0, 600)"><path d="M0 -486.7C70.2 -487.3 140.4 -487.8 186.3 -449.7C232.2 -411.6 253.8 -334.9 282.1 -282.1C310.4 -229.4 345.4 -200.7 380.6 -157.7C415.9 -114.6 451.3 -57.3 486.7 0L0 0Z" fill="#F7770F"></path></g></svg>