<svg id="visual" viewBox="0 0 900 600" width="900" height="600" xmlns="http://www.w3.org/2000/svg" xmlns:xlink="http://www.w3.org/1999/xlink" version="1.1"><rect x="0" y="0" width="900" height="600" fill="#ffffff"></rect><defs><linearGradient id="grad1_0" x1="33.3%" y1="0%" x2="100%" y2="100%"><stop offset="20%" stop-color="#ffffff" stop-opacity="1"></stop><stop offset="80%" stop-color="#ffffff" stop-opacity="1"></stop></linearGradient></defs><defs><linearGradient id="grad2_0" x1="0%" y1="0%" x2="66.7%" y2="100%"><stop offset="20%" stop-color="#ffffff" stop-opacity="1"></stop><stop offset="80%" stop-color="#ffffff" stop-opacity="1"></stop></linearGradient></defs><g transform="translate(900, 0)"><path d="M0 486.7C-49 444.3 -98 401.8 -159.2 384.3C-220.4 366.8 -293.9 374.3 -344.2 344.2C-394.5 314.1 -421.7 246.5 -441.6 182.9C-461.5 119.3 -474.1 59.7 -486.7 0L0 0Z" fill="#F7770F"></path></g><g transform="translate(0, 600)"><path d="M0 -486.7C65.7 -481.5 131.4 -476.2 186.3 -449.7C241.2 -423.2 285.3 -375.6 329.5 -329.5C373.8 -283.4 418.2 -238.7 444.4 -184.1C470.6 -129.4 478.7 -64.7 486.7 0L0 0Z" fill="#F7770F"></path></g></svg>