<svg id="visual" viewBox="0 0 900 600" width="900" height="600" xmlns="http://www.w3.org/2000/svg" xmlns:xlink="http://www.w3.org/1999/xlink" version="1.1"><path d="M0 103L13.7 98C27.3 93 54.7 83 82 88C109.3 93 136.7 113 163.8 117C191 121 218 109 245.2 110C272.3 111 299.7 125 327 131C354.3 137 381.7 135 409 127C436.3 119 463.7 105 491 102C518.3 99 545.7 107 573 108C600.3 109 627.7 103 654.8 109C682 115 709 133 736.2 141C763.3 149 790.7 147 818 144C845.3 141 872.7 137 886.3 135L900 133L900 0L886.3 0C872.7 0 845.3 0 818 0C790.7 0 763.3 0 736.2 0C709 0 682 0 654.8 0C627.7 0 600.3 0 573 0C545.7 0 518.3 0 491 0C463.7 0 436.3 0 409 0C381.7 0 354.3 0 327 0C299.7 0 272.3 0 245.2 0C218 0 191 0 163.8 0C136.7 0 109.3 0 82 0C54.7 0 27.3 0 13.7 0L0 0Z" fill="#e58d68"></path><path d="M0 151L13.7 148C27.3 145 54.7 139 82 156C109.3 173 136.7 213 163.8 222C191 231 218 209 245.2 207C272.3 205 299.7 223 327 222C354.3 221 381.7 201 409 190C436.3 179 463.7 177 491 182C518.3 187 545.7 199 573 199C600.3 199 627.7 187 654.8 185C682 183 709 191 736.2 193C763.3 195 790.7 191 818 199C845.3 207 872.7 227 886.3 237L900 247L900 131L886.3 133C872.7 135 845.3 139 818 142C790.7 145 763.3 147 736.2 139C709 131 682 113 654.8 107C627.7 101 600.3 107 573 106C545.7 105 518.3 97 491 100C463.7 103 436.3 117 409 125C381.7 133 354.3 135 327 129C299.7 123 272.3 109 245.2 108C218 107 191 119 163.8 115C136.7 111 109.3 91 82 86C54.7 81 27.3 91 13.7 96L0 101Z" fill="#db754a"></path><path d="M0 205L13.7 208C27.3 211 54.7 217 82 240C109.3 263 136.7 303 163.8 305C191 307 218 271 245.2 270C272.3 269 299.7 303 327 304C354.3 305 381.7 273 409 253C436.3 233 463.7 225 491 227C518.3 229 545.7 241 573 250C600.3 259 627.7 265 654.8 263C682 261 709 251 736.2 243C763.3 235 790.7 229 818 241C845.3 253 872.7 283 886.3 298L900 313L900 245L886.3 235C872.7 225 845.3 205 818 197C790.7 189 763.3 193 736.2 191C709 189 682 181 654.8 183C627.7 185 600.3 197 573 197C545.7 197 518.3 185 491 180C463.7 175 436.3 177 409 188C381.7 199 354.3 219 327 220C299.7 221 272.3 203 245.2 205C218 207 191 229 163.8 220C136.7 211 109.3 171 82 154C54.7 137 27.3 143 13.7 146L0 149Z" fill="#d05d2b"></path><path d="M0 427L13.7 432C27.3 437 54.7 447 82 465C109.3 483 136.7 509 163.8 502C191 495 218 455 245.2 446C272.3 437 299.7 459 327 458C354.3 457 381.7 433 409 426C436.3 419 463.7 429 491 447C518.3 465 545.7 491 573 495C600.3 499 627.7 481 654.8 451C682 421 709 379 736.2 384C763.3 389 790.7 441 818 453C845.3 465 872.7 437 886.3 423L900 409L900 311L886.3 296C872.7 281 845.3 251 818 239C790.7 227 763.3 233 736.2 241C709 249 682 259 654.8 261C627.7 263 600.3 257 573 248C545.7 239 518.3 227 491 225C463.7 223 436.3 231 409 251C381.7 271 354.3 303 327 302C299.7 301 272.3 267 245.2 268C218 269 191 305 163.8 303C136.7 301 109.3 261 82 238C54.7 215 27.3 209 13.7 206L0 203Z" fill="#b45027"></path><path d="M0 601L13.7 601C27.3 601 54.7 601 82 601C109.3 601 136.7 601 163.8 601C191 601 218 601 245.2 601C272.3 601 299.7 601 327 601C354.3 601 381.7 601 409 601C436.3 601 463.7 601 491 601C518.3 601 545.7 601 573 601C600.3 601 627.7 601 654.8 601C682 601 709 601 736.2 601C763.3 601 790.7 601 818 601C845.3 601 872.7 601 886.3 601L900 601L900 407L886.3 421C872.7 435 845.3 463 818 451C790.7 439 763.3 387 736.2 382C709 377 682 419 654.8 449C627.7 479 600.3 497 573 493C545.7 489 518.3 463 491 445C463.7 427 436.3 417 409 424C381.7 431 354.3 455 327 456C299.7 457 272.3 435 245.2 444C218 453 191 493 163.8 500C136.7 507 109.3 481 82 463C54.7 445 27.3 435 13.7 430L0 425Z" fill="#994422"></path></svg>